<?xml version="1.0" encoding="utf-8"?>
<!-- Generator: Adobe Illustrator 17.0.0, SVG Export Plug-In . SVG Version: 6.00 Build 0)  -->
<!DOCTYPE svg PUBLIC "-//W3C//DTD SVG 1.1//EN" "http://www.w3.org/Graphics/SVG/1.1/DTD/svg11.dtd">
<svg version="1.1" id="Layer_1" xmlns="http://www.w3.org/2000/svg" xmlns:xlink="http://www.w3.org/1999/xlink" x="0px" y="0px"
	 width="612px" height="792px" viewBox="0 0 612 792" enable-background="new 0 0 612 792" xml:space="preserve">
<rect x="210.24" y="299.752" fill="#FFFFFF" width="192.672" height="192.672"/>
<g>
	<path d="M221.328,384.856c1.656-1.872,3.528-2.664,5.976-2.664c5.328,0,9.072,4.608,9.072,10.872
		c0,6.048-2.592,11.016-9.432,11.016c-3.456,0-5.328-1.512-6.336-3.528h-0.144v2.952h-7.416v-28.512h8.28V384.856L221.328,384.856z
		 M228.096,393.352c0-2.232-0.792-4.824-3.456-4.824c-2.52,0-3.528,2.52-3.528,4.608c0,2.232,0.792,4.968,3.528,4.968
		C227.304,398.104,228.096,395.584,228.096,393.352z"/>
	<path d="M251.136,403.504l-0.432-2.232c-2.304,2.16-4.752,2.808-7.848,2.808c-3.888,0-7.416-1.944-7.416-6.264
		c0-9.36,14.832-5.112,14.832-9c0-1.512-1.8-1.656-2.664-1.656c-1.152,0-2.736,0.216-2.952,2.016h-7.92
		c0-4.464,3.168-6.984,11.376-6.984c9.792,0,10.44,3.6,10.44,8.568v9.648c0,1.224,0,1.8,1.08,2.664v0.432H251.136L251.136,403.504z
		 M250.272,394.36c-2.664,1.296-6.264,0.648-6.264,3.312c0,1.008,1.008,1.728,2.592,1.728
		C249.552,399.4,250.488,397.168,250.272,394.36z"/>
	<path d="M272.376,390.688c-0.072-0.864-0.36-1.584-0.864-2.16c-0.576-0.504-1.296-0.792-2.16-0.792c-3.096,0-3.6,3.24-3.6,5.688
		c0,3.024,1.152,5.112,3.6,5.112c2.16,0,2.952-1.44,3.168-3.024h8.352c-0.72,6.264-5.76,8.568-11.52,8.568
		c-6.696,0-11.88-3.744-11.88-10.728c0-7.128,4.968-11.16,11.88-11.16c5.544,0,10.8,2.376,11.376,8.496H272.376z"/>
	<path fill="#BDBDB1" d="M252.432,418.624c10.872,13.104,40.968,13.68,67.104,1.224c26.208-12.456,38.592-33.192,27.72-46.296
		c-10.872-13.104-40.896-13.68-67.104-1.224C253.944,384.784,241.56,405.52,252.432,418.624L252.432,418.624z M258.408,415.816
		c-10.8-13.032-0.936-32.256,21.96-43.2c22.896-10.872,50.112-9.216,60.912,3.744c10.728,13.032,0.864,32.256-22.032,43.2
		C296.424,430.432,269.136,428.776,258.408,415.816z"/>
	<polygon points="376.704,397.672 376.704,403.504 368.424,403.504 368.424,374.992 376.704,374.992 376.704,389.104 
		381.96,382.768 391.608,382.768 383.904,390.832 392.616,403.504 382.68,403.504 378.216,396.088 	"/>
	<polygon points="287.496,397.672 287.496,403.504 279.216,403.504 279.216,374.992 287.496,374.992 287.496,389.104 
		292.752,382.768 302.4,382.768 294.696,390.832 303.408,403.504 293.472,403.504 289.008,396.088 	"/>
	<path d="M309.528,382.768v3.096h0.072c1.152-2.52,4.104-3.672,6.48-3.672c6.336,0,9.36,5.112,9.36,10.8
		c0,8.136-5.112,11.088-9.792,11.088c-2.232,0-3.888-0.936-5.256-2.664v9.144h-8.208v-27.792H309.528L309.528,382.768z
		 M317.16,393.136c0-3.312-1.44-4.824-3.6-4.824c-2.016,0-3.384,1.872-3.384,4.68c0,2.88,1.224,4.752,3.384,4.752
		C315.792,397.744,317.16,396.016,317.16,393.136z"/>
	<path d="M360.72,390.688c0-0.864-0.36-1.584-0.864-2.16c-0.504-0.504-1.224-0.792-2.16-0.792c-3.096,0-3.6,3.24-3.6,5.688
		c0,3.024,1.224,5.112,3.6,5.112c2.16,0,3.024-1.44,3.24-3.024h8.352c-0.72,6.264-5.832,8.568-11.592,8.568
		c-6.696,0-11.808-3.744-11.808-10.728c0-7.128,4.968-11.16,11.808-11.16c5.616,0,10.8,2.376,11.448,8.496H360.72z"/>
	<path d="M339.48,403.504l-0.36-2.232c-2.376,2.16-4.752,2.808-7.848,2.808c-3.888,0-7.416-1.944-7.416-6.264
		c0-9.36,14.832-5.112,14.832-9c0-1.512-1.872-1.656-2.736-1.656c-1.152,0-2.664,0.216-2.88,2.016h-7.92
		c0-4.464,3.096-6.984,11.304-6.984c9.864,0,10.44,3.6,10.44,8.568v9.648c0,1.224,0.072,1.8,1.152,2.664v0.432H339.48
		L339.48,403.504z M338.688,394.36c-2.736,1.296-6.264,0.648-6.264,3.312c0,1.008,0.936,1.728,2.592,1.728
		C337.896,399.4,338.832,397.168,338.688,394.36z"/>
	<path fill="#BDBDB1" d="M319.248,426.904c5.328,0,9.648-4.32,9.648-9.72c0-5.328-4.32-9.648-9.648-9.648s-9.72,4.32-9.72,9.648
		C309.528,422.584,313.92,426.904,319.248,426.904z"/>
	<path d="M315.216,411.28h2.016v4.392h0.072c0.576-0.648,1.656-1.152,3.528-1.152c3.168,0,4.68,1.728,4.68,3.6
		c0,2.016-1.368,3.888-4.608,3.888c-1.944,0-3.168-0.648-3.744-1.152l0,0v1.008h-1.944V411.28L315.216,411.28z M320.4,415.6
		c-2.16,0-3.168,1.368-3.168,2.664c0,1.224,0.936,2.736,3.168,2.736c2.16,0,3.024-1.656,2.952-2.736
		C323.424,416.968,322.56,415.6,320.4,415.6z"/>
	<path d="M329.688,415.168c1.008-0.36,2.232-0.648,3.6-0.648c3.096,0,4.32,1.008,4.32,2.952v3.024c0,0.792,0.072,1.152,0.072,1.368
		h-1.872v-0.936l0,0c-0.504,0.432-1.512,1.08-3.384,1.08c-2.304,0-3.96-0.648-3.96-2.232c0-1.8,3.024-2.304,5.04-2.304
		c0.792,0,1.368,0,2.088,0c0-1.224-0.648-1.872-2.664-1.872c-1.08,0-2.304,0.288-3.096,0.72L329.688,415.168L329.688,415.168z
		 M335.592,418.48c-0.36,0-0.792-0.072-1.224-0.072c-1.08,0-3.744,0.144-3.744,1.368c0,0.792,1.08,1.224,2.016,1.224
		c1.944,0,2.952-0.864,2.952-1.944V418.48z"/>
	<path d="M342,414.664h1.944v1.152h0.072c0.576-0.792,2.016-1.296,3.528-1.296c2.736,0,4.032,1.152,4.032,3.096v4.248h-2.016v-3.744
		c0-1.656-0.576-2.448-2.304-2.52c-2.232,0-3.24,1.224-3.24,2.952v3.312H342V414.664z"/>
	<path d="M361.728,415.744h-2.88v3.96c0,0.792,0.792,1.296,1.656,1.296c0.648,0,1.08-0.144,1.368-0.288v1.152
		c-0.432,0.072-1.008,0.144-1.656,0.144c-2.088,0-3.312-0.648-3.312-2.016v-4.248h-2.448v-1.08h2.448v-1.656l1.944-0.432v2.088h2.88
		V415.744z"/>
	<path d="M365.76,415.168c1.008-0.36,2.16-0.648,3.528-0.648c3.096,0,4.392,1.008,4.392,2.952v3.024c0,0.792,0,1.152,0.072,1.368
		h-1.872v-0.936h-0.072c-0.432,0.432-1.512,1.08-3.312,1.08c-2.304,0-3.96-0.648-3.96-2.232c0-1.8,2.952-2.304,5.04-2.304
		c0.792,0,1.296,0,2.088,0c0-1.224-0.648-1.872-2.664-1.872c-1.08,0-2.304,0.288-3.096,0.72L365.76,415.168L365.76,415.168z
		 M371.664,418.48c-0.432,0-0.864-0.072-1.296-0.072c-1.08,0-3.672,0.144-3.672,1.368c0,0.792,1.08,1.224,1.944,1.224
		c2.016,0,3.024-0.864,3.024-1.944V418.48z"/>
	<path d="M378.072,414.664h1.872v1.08l0,0c0.792-0.864,1.872-1.224,3.456-1.224c1.224,0,2.448,0.432,3.024,1.368
		c0.792-1.008,2.376-1.368,3.384-1.368c2.736,0,3.744,1.152,3.744,2.736v4.608h-2.016v-4.248c0-0.936-0.288-2.016-1.944-2.016
		c-2.016,0-2.808,1.296-2.808,2.664v3.6h-2.016v-4.248c0-0.936-0.288-2.016-1.872-2.016c-2.088,0-2.88,1.296-2.88,2.664v3.6h-1.944
		V414.664z"/>
	<path d="M396.072,383.992h1.008c0.36,0,0.792,0,1.008,0.216c0.216,0.144,0.288,0.36,0.288,0.648s-0.216,0.792-0.864,0.792l0,0
		c0.216,0.072,0.36,0.216,0.72,0.792l0.36,0.576h-0.576l-0.288-0.504c-0.36-0.648-0.504-0.792-0.864-0.792h-0.288v1.296h-0.504
		V383.992L396.072,383.992z M396.576,385.36h0.576c0.216,0,0.72,0,0.72-0.504c0-0.432-0.432-0.432-0.792-0.432h-0.504V385.36
		L396.576,385.36z M400.104,385.432c0-1.512-1.296-2.736-2.808-2.736s-2.808,1.224-2.808,2.736c0,1.584,1.296,2.808,2.808,2.808
		S400.104,387.016,400.104,385.432L400.104,385.432z M394.992,385.432c0,1.296,1.008,2.376,2.304,2.376s2.304-1.08,2.304-2.376
		c0-1.224-1.008-2.304-2.304-2.304S394.992,384.208,394.992,385.432z"/>
</g>
</svg>
